<svg width="500" height="500" viewBox="0 0 500 500" xmlns="http://www.w3.org/2000/svg">
  <g transform="translate(100, 50)">
    <!-- Shield with leaf -->
    <path d="M150 50 L250 50 L250 200 L150 200 Z" fill="#4CAF50" stroke="#000000" stroke-width="2"/>
    <path d="M150 50 L200 125 L250 50" fill="#66BB6A" stroke="#000000" stroke-width="2"/>
    <!-- Circular pattern -->
    <path d="M50 100 A200 200 0 0 1 350 100" fill="none" stroke="#03A9F4" stroke-width="2"/>
    <path d="M75 75 A175 175 0 0 1 325 75" fill="none" stroke="#03A9F4" stroke-width="2"/>
    <path d="M100 50 A150 150 0 0 1 300 50" fill="none" stroke="#03A9F4" stroke-width="2"/>
    <!-- Connection points -->
    <circle cx="50" cy="100" r="3" fill="#03A9F4"/>
    <circle cx="350" cy="100" r="3" fill="#03A9F4"/>
    <circle cx="75" cy="75" r="3" fill="#03A9F4"/>
    <circle cx="325" cy="75" r="3" fill="#03A9F4"/>
    <circle cx="100" cy="50" r="3" fill="#03A9F4"/>
    <circle cx="300" cy="50" r="3" fill="#03A9F4"/>
  </g>
</svg>